Coordinates
version=1
nRows=25
nColumns=23
inDegrees=yes

Units are S.I. units (second, meters, Newtons, ...)
If the header above contains a line with 'inDegrees', this indicates whether rotational values are in degrees (yes) or radians (no).

endheader
time	pelvis_tilt	pelvis_list	pelvis_rotation	pelvis_tx	pelvis_ty	pelvis_tz	hip_flexion_r	hip_adduction_r	hip_rotation_r	knee_angle_r	knee_angle_r_beta	ankle_angle_r	subtalar_angle_r	mtp_angle_r	hip_flexion_l	hip_adduction_l	hip_rotation_l	knee_angle_l	knee_angle_l_beta	ankle_angle_l	subtalar_angle_l	mtp_angle_l
      0.00000000	     -4.20816001	      4.16149773	     -2.09482903	      2.18718981	      0.98766563	      1.04955225	    -24.21945195	     -2.99198795	    -15.49876798	     16.79198296	      0.29307539	    -19.34900832	      3.67643415	      0.00000000	     46.68607430	      1.75293621	     -4.94170969	     63.57599022	      1.10961035	      0.49156784	    -15.44576904	      0.00000000
      0.00666667	     -5.02522820	      3.88866090	     -1.22140367	      2.18837303	      0.98955556	      1.04776366	    -23.72620561	     -2.77487681	    -16.95137275	     18.66420780	      0.32575188	    -20.02820398	      2.28420164	      0.00000000	     47.09283226	      1.83491625	     -5.00388358	     58.71924984	      1.02484424	      0.22672708	    -14.43297120	      0.00000000
      0.01333333	     -5.82230581	      3.69551513	     -0.44960334	      2.18953714	      0.99123766	      1.04595906	    -23.23089168	     -2.70227054	    -18.19422660	     20.60617808	      0.35964565	    -20.45340135	      1.04018533	      0.00000000	     47.21416906	      2.03312513	     -5.16671060	     53.53017929	      0.93427788	      0.25479281	    -13.35634096	      0.00000000
      0.02000000	     -6.47929990	      3.64484251	      0.14012366	      2.19063756	      0.99277768	      1.04425344	    -22.76080615	     -2.92033370	    -19.31121679	     22.83011309	      0.39846064	    -20.50147351	      0.12748583	      0.00000000	     46.91731636	      2.28821429	     -5.62190841	     48.07371248	      0.83904457	      0.33093613	    -12.12031252	      0.00000000
      0.02666667	     -6.92574646	      3.55690256	      0.72684580	      2.19176186	      0.99411949	      1.04244698	    -22.47137794	     -3.02350710	    -19.95603004	     25.11670757	      0.43836924	    -20.30336694	     -1.05161305	      0.00000000	     46.24327146	      2.57401234	     -6.12789789	     42.61411340	      0.74375659	      0.86717061	    -10.18837872	      0.00000000
      0.03333333	     -7.21303611	      3.46166308	      1.21926061	      2.19276850	      0.99523793	      1.04062423	    -22.18405115	     -3.11054949	    -20.13489400	     27.65598275	      0.48268796	    -19.92634475	     -2.45089157	      0.00000000	     45.26752068	      2.87170959	     -6.70238964	     37.21138060	      0.64946111	      1.55849925	     -7.89921069	      0.00000000
      0.04000000	     -7.28882061	      3.35575690	      1.63163030	      2.19363189	      0.99605952	      1.03884877	    -21.91424187	     -3.20956954	    -20.05681427	     30.54355754	      0.53308564	    -19.33231670	     -3.86020633	      0.00000000	     44.01691958	      3.16237043	     -7.35095748	     32.05084790	      0.55939282	      2.35139820	     -5.26423676	      0.00000000
      0.04666667	     -7.25865978	      3.20839117	      2.05550737	      2.19425958	      0.99640487	      1.03700159	    -21.52808758	     -3.26121260	    -19.81338070	     33.80778810	      0.59005722	    -18.68811672	     -5.38189435	      0.00000000	     42.66354179	      3.55994312	     -7.65391229	     27.24598710	      0.47553218	      3.06778136	     -2.72299843	      0.00000000
      0.05333333	     -7.04117471	      3.11854369	      2.37572559	      2.19476994	      0.99648632	      1.03533472	    -21.13292533	     -3.40423202	    -19.45875158	     37.38777551	      0.65253978	    -18.04452707	     -6.66580805	      0.00000000	     41.11021552	      3.96330983	     -7.96247533	     22.84523490	      0.39872457	      3.64096229	     -0.25231055	      0.00000000
      0.06000000	     -6.71934621	      3.07745911	      2.72357282	      2.19503603	      0.99613378	      1.03374613	    -20.65396743	     -3.61253407	    -19.19495455	     41.28680784	      0.72059073	    -17.45255236	     -7.93133904	      0.00000000	     39.49447606	      4.48421668	     -7.90844406	     18.94074401	      0.33057835	      3.86995716	      1.74617781	      0.00000000
      0.06666667	     -6.29782985	      3.12904382	      3.11218446	      2.19514456	      0.99538572	      1.03231181	    -20.12816327	     -3.91694335	    -19.05766262	     45.42092787	      0.79274474	    -16.91624269	     -9.14963554	      0.00000000	     37.71249057	      5.17802422	     -7.18773107	     15.33423479	      0.26763289	      3.33445039	      2.45871696	      0.00000000
      0.07333333	     -5.91223153	      3.15395043	      3.49775519	      2.19500623	      0.99419439	      1.03110629	    -19.39453989	     -4.12295519	    -18.80168603	     49.68109701	      0.86709872	    -16.77118703	    -10.59974588	      0.00000000	     36.29478780	      5.65833202	     -6.93976872	     12.88148013	      0.22482424	      3.35552531	      3.93521791	      0.00000000
      0.08000000	     -5.34646892	      3.48426428	      3.82594487	      2.19486005	      0.99278937	      1.03014615	    -18.77288042	     -4.73634257	    -18.80282721	     54.10093149	      0.94423938	    -16.73669291	    -11.94177594	      0.00000000	     34.66149210	      6.30284163	     -7.00846312	     10.85644952	      0.18948079	      2.56661663	      4.78892603	      0.00000000
      0.08666667	     -4.56907749	      3.92136917	      4.22893096	      2.19469053	      0.99133190	      1.02933684	    -18.33871695	     -5.38937147	    -18.92094384	     58.48149553	      1.02069465	    -16.78710677	    -13.15844269	      0.00000000	     32.67822849	      7.12301282	     -6.29300274	      9.04949310	      0.15794345	      0.90727509	      3.77428617	      0.00000000
      0.09333333	     -3.93021512	      4.43833531	      4.65755434	      2.19425278	      0.98923228	      1.02857089	    -17.63785180	     -6.09707408	    -19.01041759	     62.94410075	      1.09858180	    -17.03968687	    -14.71356616	      0.00000000	     31.38915679	      7.77995397	     -6.88952313	      8.80872417	      0.15374124	      0.04262276	      3.98191222	      0.00000000
      0.10000000	     -3.24773089	      5.11699883	      5.05655505	      2.19373650	      0.98683402	      1.02797135	    -16.92964979	     -7.02476980	    -19.19172336	     67.41110140	      1.17654567	    -17.36569822	    -16.19410500	      0.00000000	     30.14259602	      8.47340498	     -7.84440863	      9.18304268	      0.16027433	     -1.08579227	      3.74682377	      0.00000000
      0.10666667	     -2.47428750	      5.87689226	      5.54365135	      2.19313704	      0.98418882	      1.02736374	    -16.30143926	     -7.97971708	    -19.44553113	     71.78318611	      1.25285295	    -17.67393059	    -17.66059348	      0.00000000	     28.92523864	      9.19192980	     -8.84934485	     10.23752690	      0.17867855	     -2.26667610	      3.15711631	      0.00000000
      0.11333333	     -1.88615826	      6.74136433	      5.89282193	      2.19235056	      0.98093332	      1.02703532	    -15.34672114	     -9.13578308	    -19.55071510	     76.19830320	      1.32991128	    -18.16923587	    -19.01257284	      0.00000000	     28.03174425	      9.82957039	    -10.22574313	     11.89638764	      0.20763113	     -3.40313386	      2.21194639	      0.00000000
      0.12000000	     -1.40452730	      7.58423757	      6.26158799	      2.19139166	      0.97723494	      1.02684535	    -14.20279983	    -10.27615951	    -19.60684060	     80.53745140	      1.40564370	    -18.53604239	    -20.32661774	      0.00000000	     27.37921134	     10.35328687	    -11.56475868	     14.14470288	      0.24687164	     -4.33177886	      1.00780472	      0.00000000
      0.12666667	     -1.06631097	      8.35622441	      6.66280576	      2.19019335	      0.97311294	      1.02674422	    -12.78038286	    -11.33575418	    -19.56065253	     84.80132578	      1.48006234	    -18.84594245	    -21.47621703	      0.00000000	     26.97331091	     10.75949579	    -12.65066535	     16.86758927	      0.29439497	     -4.90745782	     -0.41947926	      0.00000000
      0.13333333	     -0.93573942	      8.98537864	      7.11862303	      2.18867284	      0.96863139	      1.02660560	    -10.98382131	    -12.25223884	    -19.38835796	     88.97586683	      1.55292183	    -18.99004396	    -22.47046611	      0.00000000	     26.86711110	     11.02517305	    -13.42690409	     19.96395421	      0.34843673	     -5.03737994	     -2.07553712	      0.00000000
      0.14000000	     -1.01219254	      9.48939301	      7.61312200	      2.18681082	      0.96388270	      1.02650408	     -8.80595561	    -13.06395161	    -19.09677858	     93.03552980	      1.62377632	    -19.06106993	    -23.17823407	      0.00000000	     27.02414904	     11.25413493	    -13.64121608	     23.29315982	      0.40654233	     -4.67453383	     -3.88627986	      0.00000000
      0.14666667	     -1.13927824	      9.94926766	      8.11940014	      2.18466611	      0.95919984	      1.02632852	     -6.44201072	    -13.88685492	    -18.71370383	     96.93066674	      1.69175928	    -19.02178983	    -23.58358855	      0.00000000	     27.19601380	     11.57859876	    -13.32711932	     26.65217134	      0.46516814	     -3.78149252	     -6.05129712	      0.00000000
      0.15333333	     -1.43993790	     10.27797214	      8.67329562	      2.18220464	      0.95450952	      1.02601046	     -3.73041089	    -14.61955885	    -18.20202119	    100.64655428	      1.75661375	    -18.83320830	    -23.66709000	      0.00000000	     27.54074193	     11.91618267	    -12.65972122	     30.05547680	      0.52456703	     -2.45104802	     -8.17811423	      0.00000000
      0.16000000	     -1.84989326	     10.49884048	      9.18477446	      2.17948019	      0.95000409	      1.02563147	     -0.69984160	    -15.28093102	    -17.48024765	    104.15476008	      1.81784349	    -18.52501885	    -23.40355011	      0.00000000	     27.93457658	     12.23924211	    -11.81434043	     33.37825683	      0.58256048	     -0.58451149	    -10.02828911	      0.00000000
